<svg width="29" height="25" viewBox="0 0 29 25" fill="none" xmlns="http://www.w3.org/2000/svg">
<path d="M24.2033 6.61662V13.4833C24.2033 17.59 21.8567 19.3499 18.3367 19.3499H6.61666C6.01666 19.3499 5.44333 19.2967 4.90999 19.1767C4.57666 19.1233 4.25667 19.03 3.96334 18.9233C1.96334 18.1767 0.75 16.4433 0.75 13.4833V6.61662C0.75 2.50995 3.09666 0.75 6.61666 0.75H18.3367C21.3233 0.75 23.47 2.01666 24.0433 4.90999C24.1367 5.44333 24.2033 5.98995 24.2033 6.61662Z" stroke="white" stroke-width="1.5" stroke-miterlimit="10" stroke-linecap="round" stroke-linejoin="round"/>
<path d="M28.2048 10.6168V17.4835C28.2048 21.5901 25.8581 23.3501 22.3381 23.3501H10.6181C9.63147 23.3501 8.73815 23.2168 7.96481 22.9235C6.37815 22.3368 5.29814 21.1235 4.91147 19.1768C5.4448 19.2968 6.01813 19.3501 6.61813 19.3501H18.3381C21.8581 19.3501 24.2048 17.5901 24.2048 13.4835V6.61678C24.2048 5.99011 24.1515 5.43016 24.0448 4.91016C26.5781 5.44349 28.2048 7.23011 28.2048 10.6168Z" stroke="white" stroke-width="1.5" stroke-miterlimit="10" stroke-linecap="round" stroke-linejoin="round"/>
<path d="M12.4679 13.5765C14.412 13.5765 15.9879 12.0005 15.9879 10.0565C15.9879 8.11245 14.412 6.53647 12.4679 6.53647C10.5239 6.53647 8.94791 8.11245 8.94791 10.0565C8.94791 12.0005 10.5239 13.5765 12.4679 13.5765Z" stroke="white" stroke-width="1.5" stroke-miterlimit="10" stroke-linecap="round" stroke-linejoin="round"/>
<path d="M4.84335 7.12329V12.99" stroke="white" stroke-width="1.5" stroke-miterlimit="10" stroke-linecap="round" stroke-linejoin="round"/>
<path d="M20.099 7.12369V12.9904" stroke="white" stroke-width="1.5" stroke-miterlimit="10" stroke-linecap="round" stroke-linejoin="round"/>
</svg>
